<svg width="983" height="975" viewBox="0 0 983 975" fill="none" xmlns="http://www.w3.org/2000/svg">
<circle cx="491.5" cy="487.5" r="486.5" fill="black"/>
<path d="M983 487.5C983 756.739 762.948 975 491.5 975C220.052 975 0 756.739 0 487.5C0 218.261 220.052 0.000244141 491.5 0.000244141C762.948 0.000244141 983 218.261 983 487.5ZM10.6323 487.5C10.6323 750.915 225.924 964.454 491.5 964.454C757.076 964.454 972.368 750.915 972.368 487.5C972.368 224.086 757.076 10.546 491.5 10.546C225.924 10.546 10.6323 224.086 10.6323 487.5Z" fill="white"/>
<path d="M750.695 152.9C779.121 174.488 804.695 199.593 826.806 227.613L819.634 233.273C798.001 205.859 772.98 181.298 745.169 160.176L750.695 152.9Z" fill="white"/>
<path d="M230.332 817.717C202.519 795.346 177.652 769.54 156.329 740.916L163.656 735.458C184.518 763.463 208.846 788.711 236.059 810.597L230.332 817.717Z" fill="white"/>
<path d="M846 487.5C846 683.285 687.285 842 491.5 842C295.715 842 137 683.285 137 487.5C137 291.715 295.715 133 491.5 133C687.285 133 846 291.715 846 487.5ZM147.534 487.5C147.534 677.467 301.533 831.466 491.5 831.466C681.467 831.466 835.466 677.467 835.466 487.5C835.466 297.533 681.467 143.535 491.5 143.535C301.533 143.535 147.534 297.533 147.534 487.5Z" fill="white"/>
<path d="M275.492 366.335C276.318 373.582 270.944 397.268 258.421 398.694C270.944 397.268 281.154 416.031 282.334 426.384C281.154 416.031 286.882 395.452 299.405 394.025C286.882 395.452 276.323 373.631 275.492 366.335Z" fill="white"/>
<path d="M371.819 214.547C371.331 218.578 364.828 230.645 357.021 229.699C364.828 230.645 368.472 242.187 367.775 247.946C368.472 242.187 374.765 231.848 382.572 232.793C374.765 231.848 371.327 218.605 371.819 214.547Z" fill="white"/>
<path d="M698.571 627.771C699.098 620.496 708.755 598.211 721.326 599.122C708.755 598.211 702.186 577.884 702.939 567.491C702.186 577.884 692.755 597.051 680.184 596.14C692.755 597.051 699.102 620.446 698.571 627.771Z" fill="white"/>
<path d="M584.479 756.12C583.907 752.1 587.065 738.761 594.851 737.654C587.065 738.761 580.558 728.555 579.741 722.812C580.558 728.555 577.155 740.171 569.369 741.279C577.155 740.171 583.903 752.073 584.479 756.12Z" fill="white"/>
<circle cx="621.487" cy="345.24" r="45.7974" fill="white"/>
<path d="M434.247 529.914C422.586 519.228 422.189 500.976 433.373 489.792V489.792C444.557 478.608 462.808 479.006 473.495 490.666L580.221 607.123C587.778 615.368 587.5 628.101 579.592 636.01V636.01C571.684 643.918 558.951 644.195 550.705 636.639L434.247 529.914Z" fill="white"/>
<path d="M434.247 529.915C422.586 519.228 422.188 500.977 433.372 489.792V489.792C444.556 478.608 462.808 479.006 473.494 490.667L580.221 607.123C587.777 615.368 587.5 628.102 579.592 636.01V636.01C571.684 643.918 558.95 644.195 550.705 636.639L434.247 529.915Z" fill="white"/>
<path d="M552.138 596.94C565.118 592.878 578.869 600.441 582.389 613.578V613.578C585.909 626.716 577.782 640.141 564.51 643.113L423.355 674.724C413.981 676.823 404.621 671.157 402.135 661.879V661.879C399.648 652.601 404.922 643.013 414.089 640.144L552.138 596.94Z" fill="white"/>
<path fill-rule="evenodd" clip-rule="evenodd" d="M537.904 441.06C549.1 444.283 561.695 441.515 570.566 432.645C576.69 426.521 579.905 418.622 580.249 410.633C581.454 412.824 582.351 415.236 582.868 417.827L600.613 506.662C602.637 516.791 596.428 526.745 586.442 529.383C576.456 532.021 566.141 526.433 562.897 516.626L537.904 441.06Z" fill="white"/>
<path fill-rule="evenodd" clip-rule="evenodd" d="M641.408 473.159L580.256 486.708C568.051 489.412 560.554 501.734 563.762 513.816C566.97 525.898 579.592 532.877 591.53 529.171L651.349 510.6L641.408 473.159Z" fill="white"/>
<path d="M528.292 426.443C538.114 437.161 554.889 437.526 565.168 427.247V427.247C575.448 416.968 575.082 400.193 564.365 390.371L457.33 292.278C449.752 285.333 438.048 285.588 430.78 292.857V292.857C423.512 300.125 423.256 311.828 430.201 319.406L528.292 426.443Z" fill="white"/>
<path fill-rule="evenodd" clip-rule="evenodd" d="M515.876 398.232L509.194 405.603L528.292 426.443C538.114 437.161 554.889 437.526 565.169 427.247C574.881 417.535 575.09 402.024 566.044 392.058C550.445 381.59 528.992 383.764 515.876 398.232ZM522.665 431.6L504.045 411.282L431.1 491.742C421.953 503.02 423.294 519.877 434.247 529.914L458.009 551.69L570.056 453.27C582.894 441.994 586.403 424.216 580.279 409.409C580.226 417.811 577.002 426.208 570.566 432.644C557.214 445.997 535.423 445.522 522.665 431.6ZM452.241 556.757L429.09 535.541C420.669 527.824 416.856 517.011 417.724 506.495L279.692 658.748C272.907 666.232 273.299 677.753 280.577 684.758C287.575 691.493 298.566 691.743 305.863 685.333L452.241 556.757Z" fill="white"/>
<path d="M466.689 318.089C470.422 306.159 463.471 293.521 451.396 290.285V290.285C439.322 287.05 426.983 294.519 424.251 306.718L395.197 436.454C393.268 445.069 398.476 453.672 407.004 455.957V455.957C415.531 458.242 424.343 453.396 426.98 444.97L466.689 318.089Z" fill="white"/>
<path d="M665.105 520.602C663.452 521.04 661.757 520.056 661.318 518.404V518.404C660.879 516.751 661.863 515.056 663.516 514.617L745.89 492.745C747.542 492.306 749.238 493.29 749.676 494.943V494.943C750.115 496.595 749.131 498.291 747.479 498.73L665.105 520.602Z" fill="white"/>
<path fill-rule="evenodd" clip-rule="evenodd" d="M662.629 511.988C661.074 512.401 659.478 511.475 659.065 509.92L645.793 459.932C645.38 458.377 646.306 456.781 647.861 456.368L662.73 452.42L677.498 508.04L662.629 511.988ZM683.586 506.424L668.818 450.803L679.441 447.983L694.209 503.603L683.586 506.424ZM700.297 501.987L710.92 499.166L696.152 443.546L685.529 446.366L700.297 501.987ZM727.632 494.729L717.008 497.549L702.24 441.929L712.863 439.109L727.632 494.729ZM733.719 493.112L745.355 490.023C746.911 489.61 747.837 488.014 747.424 486.459L734.151 436.471C733.738 434.916 732.142 433.99 730.587 434.403L718.951 437.492L733.719 493.112Z" fill="white"/>
<path d="M178.445 676.142C178.914 676.972 179.137 677.815 179.115 678.67C179.028 679.561 178.57 680.24 177.74 680.709L112.608 717.491C111.778 717.96 110.991 717.983 110.247 717.561C109.504 717.139 108.897 716.512 108.429 715.682C107.996 714.916 107.791 714.105 107.813 713.251C107.8 712.332 108.208 711.638 109.038 711.169L137.581 695.05L121.949 667.369L93.4059 683.488C92.5758 683.957 91.7889 683.98 91.0451 683.558C90.3014 683.136 89.6952 682.51 89.2264 681.68C88.7936 680.913 88.5885 680.103 88.6111 679.248C88.5975 678.329 89.0058 677.635 89.8359 677.167L154.968 640.385C155.798 639.916 156.635 639.907 157.478 640.357C158.222 640.779 158.81 641.373 159.243 642.139C159.712 642.97 159.935 643.812 159.912 644.667C159.826 645.558 159.368 646.238 158.538 646.707L127.504 664.232L143.137 691.913L174.17 674.388C175 673.919 175.837 673.909 176.681 674.359C177.424 674.782 178.013 675.376 178.445 676.142Z" fill="white"/>
<path d="M145.42 611.084C145.675 611.849 145.71 612.649 145.525 613.484C145.247 614.272 144.656 614.818 143.751 615.119L72.9022 638.763C71.9979 639.064 71.2326 638.972 70.6063 638.485C69.8872 637.952 69.4 637.303 69.1447 636.538L56.7485 599.391C56.4467 598.487 56.574 597.71 57.1303 597.061C57.6171 596.434 58.2431 595.994 59.0083 595.738C59.843 595.46 60.6895 595.448 61.5476 595.703C62.3129 595.911 62.8349 596.433 63.1134 597.267L74.2561 630.657L102.95 621.081L97.4836 604.7C97.205 603.865 97.3091 603.134 97.7959 602.508C98.2595 601.812 98.9086 601.325 99.7434 601.046C100.439 600.814 101.169 600.802 101.935 601.011C102.7 601.219 103.234 601.776 103.536 602.68L109.002 619.062L137.801 609.451L126.658 576.062C126.38 575.227 126.484 574.496 126.971 573.87C127.434 573.174 128.118 572.675 129.023 572.373C129.788 572.118 130.588 572.083 131.423 572.268C132.188 572.477 132.722 573.033 133.023 573.937L145.42 611.084Z" fill="white"/>
<path d="M127.082 548.892C127.158 549.474 127.13 550.106 126.997 550.789C126.792 551.482 126.5 552.075 126.12 552.568C125.668 553.071 125.152 553.36 124.57 553.437C124.279 553.475 124.02 553.472 123.792 553.427L46.8598 540.308C45.8765 540.14 45.1507 539.681 44.6825 538.928C44.1416 538.186 43.8092 537.342 43.6856 536.396C43.5524 535.378 43.6516 534.441 43.9832 533.584C44.3053 532.654 44.8884 532.023 45.7324 531.691L116.714 499.329C116.922 499.227 117.136 499.162 117.354 499.134C117.935 499.058 118.509 499.205 119.075 499.574C119.569 499.953 120.004 500.451 120.38 501.068C120.757 501.684 120.993 502.356 121.088 503.083C121.164 503.664 121.09 504.229 120.865 504.776C120.641 505.323 120.216 505.748 119.59 506.052L103.45 513.267L107.389 543.371L124.842 546.19C125.525 546.323 126.045 546.624 126.403 547.095C126.76 547.566 126.986 548.165 127.082 548.892ZM100.943 542.439L97.4755 515.935L55.247 534.884L100.943 542.439Z" fill="white"/>
<path d="M122.401 456.263C122.342 457.215 122.066 458.116 121.572 458.967C121.083 459.745 120.393 460.217 119.501 460.382L43.6353 478.826C43.4112 478.885 43.1527 478.906 42.8599 478.888C42.2744 478.852 41.7757 478.6 41.3637 478.134C40.8786 477.663 40.5466 477.091 40.3678 476.419C40.1159 475.742 40.0103 475.074 40.0511 474.416C40.092 473.757 40.2746 473.18 40.5991 472.686C40.9236 472.192 41.4221 471.855 42.0944 471.677L110.764 455.542L44.6045 431.164C43.9549 430.977 43.4995 430.618 43.2385 430.088C42.9775 429.557 42.8674 428.963 42.9082 428.304C42.949 427.645 43.1362 426.996 43.4698 426.355C43.8034 425.714 44.2033 425.188 44.6697 424.776C45.1406 424.291 45.7054 424.069 46.3642 424.11C46.4374 424.114 46.5449 424.158 46.6867 424.24C46.7599 424.244 46.8675 424.288 47.0093 424.37L120.038 451.709C120.899 452.056 121.521 452.682 121.906 453.588C122.295 454.42 122.46 455.312 122.401 456.263Z" fill="white"/>
<path d="M128.146 405.189C127.943 405.97 127.537 406.66 126.927 407.259C126.264 407.769 125.471 407.904 124.548 407.665L52.2523 388.907C51.3295 388.667 50.7381 388.173 50.4779 387.424C50.1652 386.585 50.1102 385.775 50.3128 384.994L60.1478 347.089C60.3872 346.167 60.9171 345.584 61.7374 345.343C62.4867 345.082 63.2518 345.054 64.0326 345.256C64.8844 345.477 65.6008 345.928 66.1817 346.609C66.71 347.201 66.8637 347.923 66.6427 348.775L57.8023 382.846L87.0827 390.444L91.42 373.727C91.6411 372.875 92.1262 372.319 92.8756 372.059C93.6434 371.728 94.4531 371.673 95.3049 371.894C96.0148 372.078 96.6338 372.466 97.1622 373.058C97.6905 373.649 97.835 374.407 97.5956 375.329L93.2582 392.046L122.645 399.671L131.486 365.599C131.707 364.747 132.192 364.191 132.941 363.931C133.709 363.6 134.554 363.554 135.477 363.793C136.258 363.996 136.948 364.402 137.547 365.012C138.075 365.604 138.22 366.361 137.98 367.284L128.146 405.189Z" fill="white"/>
<path d="M147.374 341.503C146.963 342.363 146.4 343.029 145.687 343.501C144.908 343.941 144.088 343.956 143.228 343.545L75.7401 311.289C74.8138 310.846 74.3434 310.215 74.3288 309.395C74.248 308.544 74.4132 307.688 74.8243 306.828C75.2038 306.034 75.7674 305.45 76.5152 305.076C77.1968 304.67 78.028 304.377 79.0088 304.195C79.9234 303.982 80.9057 303.883 81.9555 303.897L147.463 302.288L92.5796 276.056C91.7194 275.645 91.249 275.014 91.1682 274.163C91.0875 273.311 91.2526 272.456 91.6637 271.595C92.0432 270.801 92.5896 270.169 93.3028 269.697C94.0476 269.159 94.8501 269.095 95.7103 269.506L163.198 301.762C164.058 302.173 164.546 302.853 164.661 303.802C164.742 304.654 164.593 305.476 164.213 306.27C163.77 307.197 162.995 307.883 161.888 308.329C160.746 308.677 159.568 308.846 158.355 308.835L91.4752 310.763L146.359 336.995C147.219 337.406 147.706 338.086 147.822 339.035C147.903 339.886 147.753 340.709 147.374 341.503Z" fill="white"/>
<path d="M184.698 273.12C184.218 273.768 183.583 274.255 182.793 274.582C181.987 274.807 181.202 274.635 180.436 274.068L120.343 229.527C119.577 228.96 119.235 228.25 119.318 227.399C119.402 226.548 119.727 225.739 120.295 224.974C120.819 224.267 121.476 223.749 122.266 223.422C123.1 223.036 123.9 223.127 124.666 223.695L181.666 265.943L200.333 240.757C200.857 240.05 201.523 239.767 202.331 239.909C203.079 240.008 203.778 240.297 204.426 240.777C205.133 241.301 205.671 241.929 206.042 242.66C206.354 243.348 206.248 244.045 205.724 244.752L184.698 273.12Z" fill="white"/>
<path d="M239.594 210.48C238.945 211.074 238.174 211.481 237.282 211.701C236.394 211.817 235.629 211.524 234.985 210.82L216.125 190.206C215.878 189.935 215.626 189.768 215.369 189.705L169.092 172.854C168.736 172.683 168.405 172.538 168.099 172.421C167.797 172.2 167.547 171.981 167.349 171.765C166.953 171.332 166.769 170.805 166.797 170.183C166.775 169.507 166.906 168.89 167.191 168.332C167.479 167.67 167.84 167.141 168.273 166.745C168.706 166.349 169.209 166.138 169.781 166.111C170.407 166.035 171.103 166.144 171.868 166.438L213.903 182.399L201.816 139.039C201.646 138.201 201.599 137.499 201.676 136.931C201.754 136.363 202.009 135.882 202.441 135.486C202.928 135.04 203.487 134.728 204.118 134.548C204.699 134.314 205.299 134.263 205.916 134.394C206.537 134.422 207.046 134.652 207.442 135.085C207.64 135.302 207.836 135.57 208.029 135.89C208.173 136.156 208.315 136.473 208.454 136.843L221.05 184.507C221.091 184.769 221.234 185.035 221.482 185.305L240.342 205.92C240.985 206.623 241.21 207.412 241.015 208.285C240.771 209.105 240.297 209.837 239.594 210.48Z" fill="white"/>
<path d="M340.791 144.769C339.829 145.128 338.983 145.17 338.254 144.894C337.499 144.549 336.994 144.033 336.738 143.346L310.598 73.2621C310.265 72.3688 310.33 71.6008 310.795 70.9579C311.303 70.2206 311.934 69.7111 312.69 69.4292L329.593 63.1248C333.44 61.6897 337.111 60.8293 340.605 60.5437C344.168 60.2324 347.351 61.002 350.154 62.8523C353.026 64.677 355.359 67.9942 357.153 72.8038C358.767 77.1325 359.301 81.0817 358.754 84.6513C358.25 88.1265 356.91 90.9351 354.735 93.077C357.173 93.107 359.451 93.5488 361.569 94.4023C363.688 95.2558 365.616 96.6496 367.355 98.5839C369.094 100.518 370.63 103.272 371.963 106.845L372.655 108.7C374.602 113.922 375.259 118.412 374.626 122.17C373.993 125.928 372.387 129.071 369.807 131.599C367.228 134.126 364.049 136.094 360.27 137.504L340.791 144.769ZM342.156 137.099L356.997 131.563C361.463 129.897 364.519 127.388 366.164 124.035C367.853 120.587 367.71 116.218 365.737 110.928L365.084 109.176C363.085 103.816 360.382 100.559 356.977 99.4023C353.615 98.1518 349.7 98.3595 345.234 100.025L330.393 105.561L342.156 137.099ZM328.163 99.583L341.562 94.5857C346.371 92.7918 349.538 90.4757 351.063 87.6374C352.587 84.7991 352.439 80.9408 350.62 76.0624C349.415 72.833 347.874 70.5901 345.997 69.3337C344.119 68.0772 342 67.5371 339.64 67.7131C337.253 67.8205 334.617 68.4123 331.732 69.4887L318.745 74.3322L328.163 99.583Z" fill="white"/>
<path d="M426.437 120.987C422.242 121.685 418.318 121.558 414.665 120.605C411.012 119.652 407.89 117.645 405.298 114.582C402.707 111.52 400.941 107.167 400.001 101.525L394.418 67.9965C393.478 62.3542 393.738 57.6645 395.198 53.9273C396.657 50.1902 398.924 47.285 401.998 45.2118C405.145 43.1266 408.853 41.7286 413.12 41.0179C417.388 40.3072 421.349 40.4283 425.001 41.3812C428.654 42.3341 431.777 44.3418 434.368 47.4044C436.96 50.467 438.725 54.8194 439.665 60.4617L445.248 93.99C446.188 99.6323 445.928 104.322 444.469 108.059C443.009 111.796 440.706 114.707 437.56 116.793C434.413 118.878 430.705 120.276 426.437 120.987ZM425.335 114.368C430.182 113.561 433.72 111.596 435.951 108.474C438.254 105.34 438.93 100.915 437.978 95.2006L432.395 61.6723C431.443 55.9577 429.37 51.991 426.176 49.7723C423.054 47.5415 419.069 46.8297 414.223 47.6367C409.376 48.4438 405.837 50.4085 403.607 53.5306C401.376 56.6528 400.736 61.0712 401.688 66.7859L407.271 100.314C408.223 106.029 410.26 110.002 413.382 112.232C416.504 114.463 420.489 115.175 425.335 114.368Z" fill="white"/>
<path d="M476.257 115.329C475.231 115.301 474.432 115.023 473.859 114.494C473.286 113.965 473.011 113.297 473.033 112.491L475.053 37.6082C475.075 36.8018 475.386 36.15 475.986 35.6527C476.587 35.1553 477.4 34.9205 478.426 34.9482L497.889 35.4733C502.214 35.59 506.079 36.4646 509.482 38.097C512.96 39.7313 515.641 42.2979 517.528 45.7967C519.487 49.2975 520.39 53.9069 520.236 59.6248L519.337 92.9427C519.183 98.6606 518.033 103.215 515.887 106.605C513.815 109.997 510.999 112.415 507.438 113.859C503.951 115.306 500.045 115.971 495.72 115.854L476.257 115.329ZM480.397 108.728L495.901 109.147C500.813 109.279 504.698 108.027 507.557 105.39C510.416 102.752 511.923 98.5381 512.08 92.7469L512.978 59.429C513.135 53.6378 511.857 49.3484 509.144 46.5609C506.432 43.7734 502.62 42.3134 497.708 42.1809L482.204 41.7626L480.397 108.728Z" fill="white"/>
<path d="M564.319 124.593C563.389 124.386 562.613 123.988 561.993 123.399C561.389 122.739 561.19 121.943 561.397 121.013L577.645 47.9986C577.852 47.0681 578.361 46.4677 579.172 46.1975C579.984 45.9273 580.855 45.8957 581.785 46.1028C582.644 46.2939 583.384 46.6839 584.004 47.2727C584.696 47.8774 584.938 48.6451 584.731 49.5756L568.484 122.59C568.277 123.52 567.724 124.148 566.825 124.474C566.013 124.745 565.178 124.784 564.319 124.593Z" fill="white"/>
<path d="M612.93 138.725C612.191 138.403 611.573 137.893 611.076 137.197C610.676 136.463 610.667 135.659 611.047 134.785L640.884 66.313C641.265 65.4391 641.846 64.9322 642.627 64.7925C643.504 64.6149 644.313 64.6872 645.052 65.0094L680.952 80.6529C681.826 81.0338 682.318 81.6482 682.428 82.4963C682.568 83.2771 682.477 84.0372 682.155 84.7768C681.803 85.5835 681.245 86.2205 680.482 86.6877C679.815 87.117 679.078 87.1558 678.271 86.8043L646.002 72.7427L633.918 100.474L649.75 107.373C650.557 107.725 651.03 108.291 651.17 109.072C651.377 109.882 651.304 110.69 650.953 111.497C650.66 112.169 650.18 112.72 649.513 113.149C648.846 113.579 648.075 113.603 647.201 113.222L631.369 106.323L619.241 134.155L651.51 148.217C652.317 148.568 652.79 149.135 652.93 149.915C653.137 150.726 653.05 151.568 652.669 152.442C652.347 153.181 651.838 153.799 651.141 154.296C650.474 154.725 649.704 154.749 648.83 154.368L612.93 138.725Z" fill="white"/>
<path d="M690.762 180.963C686.896 178.302 683.969 175.441 681.981 172.38C680.034 169.259 678.825 166.424 678.355 163.874C677.986 161.306 678.176 159.478 678.925 158.391C679.257 157.907 679.732 157.477 680.348 157.1C681.024 156.764 681.677 156.591 682.308 156.58C682.98 156.508 683.528 156.618 683.951 156.909C684.555 157.325 684.889 158.134 684.952 159.335C685.117 160.517 685.36 161.975 685.68 163.709C686.102 165.424 686.918 167.277 688.129 169.268C689.382 171.199 691.428 173.142 694.267 175.096C697.106 177.05 699.834 178.261 702.451 178.727C705.11 179.133 707.606 178.804 709.941 177.74C712.317 176.617 714.462 174.665 716.375 171.887C718.371 168.987 719.428 166.288 719.547 163.787C719.666 161.287 719.214 158.84 718.192 156.444C717.231 154.091 715.963 151.794 714.389 149.553C712.816 147.312 711.233 145.021 709.641 142.678C708.109 140.377 706.853 137.998 705.872 135.543C704.933 133.027 704.607 130.398 704.892 127.656C705.218 124.854 706.463 121.882 708.625 118.741C710.871 115.48 713.325 113.207 715.989 111.925C718.694 110.582 721.398 109.951 724.103 110.032C726.867 110.155 729.533 110.744 732.101 111.799C734.71 112.794 737.072 114.02 739.186 115.475C740.877 116.64 742.495 117.976 744.038 119.484C745.684 120.973 747.096 122.479 748.273 124.002C749.45 125.524 750.243 126.96 750.65 128.309C751.159 129.639 751.122 130.726 750.54 131.572C750.29 131.934 749.858 132.304 749.242 132.681C748.728 133.04 748.144 133.306 747.491 133.479C746.837 133.652 746.209 133.531 745.604 133.115C745.061 132.741 744.493 131.949 743.901 130.741C743.35 129.471 742.416 127.982 741.099 126.274C739.884 124.548 737.948 122.769 735.29 120.94C733.116 119.443 730.794 118.289 728.324 117.479C725.915 116.711 723.536 116.676 721.186 117.373C718.878 118.01 716.809 119.657 714.979 122.315C713.316 124.731 712.508 127.068 712.556 129.327C712.705 131.566 713.344 133.742 714.472 135.854C715.66 138.008 717.041 140.205 718.615 142.446C720.23 144.626 721.762 146.927 723.21 149.349C724.761 151.752 725.913 154.281 726.667 156.937C727.523 159.574 727.704 162.414 727.211 165.458C726.718 168.502 725.224 171.836 722.729 175.46C719.777 179.749 716.528 182.721 712.985 184.377C709.482 185.972 705.824 186.436 702.01 185.769C698.256 185.143 694.507 183.541 690.762 180.963Z" fill="white"/>
<path d="M298.045 898.382C293.913 896.38 290.658 894.047 288.282 891.381C285.937 888.651 284.349 886.088 283.516 883.692C282.78 881.262 282.693 879.466 283.256 878.304C283.506 877.787 283.901 877.301 284.441 876.845C285.045 876.42 285.652 876.156 286.26 876.052C286.9 875.884 287.446 875.909 287.898 876.128C288.543 876.44 288.986 877.173 289.225 878.325C289.56 879.444 290.01 880.818 290.576 882.448C291.238 884.044 292.302 885.715 293.768 887.461C295.265 889.143 297.532 890.719 300.566 892.189C303.601 893.659 306.419 894.426 309.019 894.49C311.65 894.489 314.016 893.801 316.117 892.427C318.249 890.988 320.034 888.783 321.473 885.813C322.974 882.714 323.597 879.946 323.341 877.51C323.086 875.075 322.287 872.775 320.944 870.609C319.666 868.475 318.1 866.441 316.246 864.507C314.393 862.573 312.523 860.591 310.636 858.561C308.814 856.563 307.247 854.448 305.935 852.219C304.655 849.924 303.95 847.43 303.82 844.736C303.721 841.978 304.484 838.92 306.111 835.562C307.8 832.075 309.837 829.515 312.223 827.88C314.641 826.181 317.163 825.17 319.79 824.849C322.482 824.558 325.148 824.733 327.787 825.374C330.458 825.95 332.923 826.785 335.183 827.88C336.991 828.755 338.753 829.808 340.47 831.038C342.282 832.235 343.87 833.482 345.234 834.781C346.598 836.079 347.577 837.35 348.17 838.594C348.859 839.805 348.985 840.863 348.547 841.767C348.359 842.154 347.995 842.576 347.456 843.032C347.012 843.455 346.487 843.798 345.88 844.062C345.274 844.327 344.648 844.303 344.002 843.99C343.421 843.708 342.755 843.027 342.003 841.945C341.282 840.799 340.159 839.498 338.632 838.041C337.202 836.55 335.066 835.117 332.225 833.741C329.9 832.615 327.484 831.843 324.975 831.426C322.532 831.039 320.225 831.357 318.056 832.379C315.918 833.337 314.161 835.236 312.785 838.077C311.534 840.66 311.099 843.04 311.479 845.218C311.955 847.362 312.895 849.371 314.299 851.247C315.767 853.154 317.427 855.074 319.281 857.008C321.165 858.878 322.988 860.877 324.747 863.004C326.603 865.099 328.091 867.375 329.213 869.831C330.431 872.255 331.027 874.975 331.001 877.992C330.975 881.008 330.023 884.454 328.147 888.328C325.926 892.913 323.225 896.268 320.043 898.394C316.892 900.455 313.422 901.446 309.635 901.365C305.912 901.316 302.049 900.321 298.045 898.382Z" fill="white"/>
<path d="M369.329 925.365C368.424 925.14 367.676 924.731 367.084 924.14C366.51 923.479 366.335 922.696 366.561 921.791L384.277 850.784C384.45 850.088 384.842 849.557 385.451 849.191C386.129 848.843 386.929 848.747 387.852 848.903L407.065 853.697C411.103 854.704 414.575 856.347 417.482 858.625C420.39 860.903 422.375 863.913 423.438 867.654C424.519 871.325 424.39 875.841 423.053 881.201L422.792 882.245C421.438 887.675 419.378 891.783 416.612 894.568C413.934 897.302 410.732 899.017 407.009 899.715C403.372 900.361 399.535 900.18 395.498 899.172L380.461 895.421L373.453 923.51C373.227 924.415 372.67 925.016 371.783 925.312C370.983 925.556 370.165 925.574 369.329 925.365ZM381.972 889.364L397.009 893.116C401.673 894.28 405.614 893.895 408.832 891.962C412.138 889.977 414.468 886.269 415.822 880.839L416.109 879.69C417.481 874.191 417.166 869.823 415.163 866.588C413.23 863.369 409.931 861.178 405.267 860.014L390.231 856.263L381.972 889.364Z" fill="white"/>
<path d="M461.233 941.804C460.445 941.775 459.7 941.533 458.998 941.076C458.371 940.551 458.075 939.822 458.109 938.89L460.787 865.863C460.821 864.931 461.169 864.262 461.83 863.855C462.565 863.38 463.327 863.156 464.116 863.185L502.404 864.589C503.336 864.623 504.004 865.007 504.408 865.74C504.814 866.401 505.003 867.126 504.974 867.914C504.943 868.775 504.663 869.554 504.135 870.253C503.681 870.882 503.024 871.181 502.163 871.15L467.747 869.888L466.663 899.464L483.548 900.083C484.409 900.115 485.042 900.461 485.449 901.122C485.927 901.786 486.15 902.548 486.119 903.408C486.092 904.125 485.852 904.799 485.398 905.428C484.944 906.058 484.251 906.355 483.319 906.321L466.434 905.702L465.346 935.386L499.762 936.648C500.622 936.679 501.255 937.026 501.662 937.687C502.14 938.35 502.362 939.148 502.328 940.08C502.299 940.869 502.056 941.614 501.6 942.315C501.146 942.945 500.453 943.242 499.521 943.208L461.233 941.804Z" fill="white"/>
<path d="M552.608 939.05C551.83 939.183 551.052 939.097 550.272 938.793C549.551 938.406 549.112 937.753 548.956 936.833L536.694 864.794C536.537 863.875 536.741 863.148 537.305 862.616C537.928 862 538.629 861.626 539.407 861.494L577.177 855.065C578.097 854.908 578.829 855.147 579.373 855.782C579.906 856.347 580.239 857.018 580.371 857.796C580.516 858.645 580.401 859.465 580.026 860.257C579.71 860.965 579.127 861.392 578.279 861.536L544.328 867.316L549.294 896.492L565.951 893.657C566.8 893.512 567.491 893.722 568.024 894.286C568.627 894.839 569.001 895.539 569.146 896.388C569.266 897.095 569.168 897.803 568.852 898.512C568.536 899.221 567.918 899.654 566.999 899.81L550.342 902.646L555.326 931.928L589.277 926.149C590.126 926.005 590.816 926.214 591.349 926.779C591.953 927.331 592.333 928.067 592.489 928.987C592.622 929.765 592.536 930.543 592.232 931.323C591.916 932.032 591.298 932.464 590.379 932.621L552.608 939.05Z" fill="white"/>
<path d="M641.638 917.798C640.706 918.17 639.88 918.23 639.16 917.977C638.441 917.724 637.935 917.231 637.642 916.498L610.433 848.445C610.14 847.712 610.167 847.006 610.513 846.327C610.86 845.647 611.499 845.121 612.432 844.748L630.12 837.676C634.05 836.105 637.861 835.392 641.551 835.54C645.308 835.66 648.712 836.926 651.763 839.338C654.88 841.724 657.478 845.515 659.555 850.711L671.662 880.99C673.739 886.186 674.471 890.723 673.858 894.6C673.311 898.45 671.718 901.714 669.08 904.392C666.508 907.043 663.257 909.154 659.326 910.726L641.638 917.798ZM642.799 910.263L656.889 904.63C661.353 902.845 664.357 900.214 665.903 896.737C667.45 893.26 667.17 888.89 665.066 883.627L652.96 853.348C650.856 848.085 648.045 844.727 644.528 843.274C641.011 841.821 637.02 841.987 632.557 843.772L618.467 849.406L642.799 910.263Z" fill="white"/>
<path d="M760.686 854.678C760.033 855.12 759.217 855.195 758.24 854.903C757.223 854.552 756.295 854.14 755.456 853.668L723.639 836.21L712.317 843.868L730.828 871.235C731.351 872.008 731.426 872.823 731.053 873.681C730.7 874.44 730.167 875.06 729.454 875.543C728.681 876.065 727.877 876.349 727.042 876.395C726.166 876.381 725.467 875.987 724.945 875.215L683.943 814.596C683.541 814.002 683.407 813.356 683.542 812.658C683.677 811.961 684.051 811.362 684.664 810.86L700.443 800.187C703.949 797.816 707.52 796.18 711.156 795.28C714.792 794.38 718.335 794.625 721.787 796.015C725.299 797.364 728.562 800.268 731.577 804.725C734.069 808.41 735.495 811.863 735.855 815.084C736.274 818.265 735.856 821.233 734.601 823.988C733.365 826.643 731.601 829.092 729.307 831.336L760.883 848.438C761.182 848.495 761.412 848.643 761.573 848.881C761.753 849.019 761.903 849.177 762.024 849.355C762.345 849.831 762.489 850.427 762.454 851.144C762.478 851.82 762.323 852.488 761.989 853.147C761.656 853.805 761.221 854.316 760.686 854.678ZM708.88 838.786L721.004 830.586C724.986 827.893 727.552 824.771 728.702 821.221C729.872 817.572 728.949 813.518 725.934 809.061C722.879 804.545 719.461 802.179 715.678 801.966C711.955 801.712 708.103 802.932 704.121 805.625L691.997 813.826L708.88 838.786Z" fill="white"/>
<path d="M816.715 804.945C813.798 808.012 810.631 810.248 807.215 811.653C803.799 813.058 800.177 813.326 796.349 812.457C792.521 811.588 788.58 809.225 784.525 805.368L745.694 768.427C745.018 767.784 744.771 767.054 744.954 766.238C745.137 765.421 745.549 764.675 746.192 763.999C746.835 763.324 747.56 762.874 748.366 762.651C749.173 762.428 749.914 762.638 750.59 763.281L789.421 800.222C793.528 804.128 797.482 806.009 801.285 805.863C805.088 805.718 808.645 803.903 811.959 800.42C815.322 796.886 816.981 793.216 816.937 789.41C816.892 785.605 814.817 781.749 810.71 777.843L771.879 740.902C771.203 740.259 770.956 739.529 771.139 738.713C771.322 737.896 771.734 737.15 772.377 736.474C773.02 735.798 773.745 735.349 774.551 735.126C775.358 734.903 776.099 735.113 776.775 735.756L815.606 772.696C819.661 776.554 822.217 780.372 823.276 784.152C824.384 787.88 824.297 791.51 823.015 795.044C821.733 798.578 819.633 801.878 816.715 804.945Z" fill="white"/>
<path d="M866.33 742.216C865.852 743.017 865.244 743.615 864.507 744.01C863.708 744.369 862.908 744.309 862.107 743.831L799.274 706.311C798.411 705.796 798.01 705.138 798.07 704.338C798.068 703.502 798.306 702.683 798.785 701.882C799.226 701.143 799.828 700.625 800.59 700.328C801.291 699.994 802.127 699.783 803.099 699.695C804.009 699.57 804.975 699.562 805.997 699.67L869.96 704.021L818.861 673.508C818.061 673.03 817.659 672.372 817.658 671.536C817.656 670.699 817.894 669.88 818.372 669.079C818.814 668.34 819.403 667.773 820.14 667.378C820.915 666.921 821.702 666.931 822.503 667.41L885.336 704.929C886.137 705.408 886.551 706.114 886.577 707.049C886.579 707.886 886.359 708.674 885.918 709.413C885.403 710.276 884.586 710.874 883.467 711.209C882.323 711.445 881.16 711.503 879.979 711.382L814.651 707.22L865.749 737.732C866.55 738.21 866.963 738.917 866.99 739.852C866.992 740.689 866.772 741.477 866.33 742.216Z" fill="white"/>
<path d="M928.103 598.404C927.916 599.391 927.522 600.12 926.921 600.59C926.321 601.06 925.633 601.222 924.857 601.075L852.852 587.409C852.077 587.262 851.496 586.859 851.109 586.202C850.723 585.544 850.623 584.722 850.811 583.735L854.363 565.02C855.152 560.861 856.601 557.266 858.71 554.234C860.833 551.131 863.731 548.942 867.405 547.668C871.093 546.323 875.686 546.172 881.184 547.216L913.222 553.296C918.72 554.34 922.938 556.163 925.877 558.765C928.828 561.297 930.723 564.395 931.561 568.06C932.413 571.654 932.444 575.53 931.655 579.689L928.103 598.404ZM922.375 593.374L925.205 578.465C926.101 573.742 925.5 569.794 923.4 566.62C921.3 563.447 917.466 561.332 911.897 560.275L879.859 554.194C874.291 553.137 869.948 553.701 866.832 555.884C863.715 558.068 861.709 561.521 860.812 566.244L857.983 581.153L922.375 593.374Z" fill="white"/>
<path d="M939.876 483.599C940.003 487.758 939.366 491.546 937.963 494.963C936.561 498.38 934.205 501.144 930.896 503.256C927.587 505.367 923.136 506.509 917.542 506.68L884.303 507.701C878.709 507.872 874.196 507.006 870.764 505.101C867.331 503.197 864.812 500.618 863.204 497.366C861.595 494.041 860.725 490.264 860.595 486.032C860.466 481.801 861.102 477.977 862.504 474.561C863.907 471.144 866.263 468.38 869.572 466.268C872.881 464.157 877.332 463.015 882.926 462.843L916.165 461.823C921.759 461.651 926.272 462.518 929.704 464.422C933.136 466.327 935.657 468.941 937.267 472.266C938.876 475.59 939.746 479.368 939.876 483.599ZM933.314 483.8C933.166 478.995 931.725 475.307 928.99 472.735C926.253 470.091 922.052 468.856 916.386 469.03L883.147 470.051C877.481 470.225 873.364 471.715 870.794 474.521C868.222 477.256 867.01 481.026 867.157 485.831C867.305 490.636 868.746 494.324 871.481 496.896C874.216 499.468 878.416 500.667 884.081 500.493L917.321 499.473C922.986 499.299 927.105 497.845 929.677 495.11C932.249 492.375 933.461 488.605 933.314 483.8Z" fill="white"/>
<path d="M926.444 387.336C927.419 391.234 927.593 395.036 926.967 398.743C926.341 402.449 924.636 405.686 921.851 408.453C919.067 411.22 914.961 413.282 909.532 414.64L877.27 422.707C871.841 424.065 867.238 424.143 863.462 422.943C859.685 421.742 856.657 419.689 854.378 416.783C852.081 413.808 850.436 410.336 849.444 406.369C848.295 401.775 848.121 397.677 848.921 394.075C849.721 390.473 851.235 387.506 853.462 385.174C855.672 382.772 858.378 381.171 861.58 380.37C863.25 379.953 864.442 379.987 865.156 380.475C865.782 380.91 866.235 381.684 866.513 382.798C866.827 384.05 866.809 385.016 866.461 385.695C866.026 386.321 865.469 386.756 864.791 387C863.677 387.279 862.477 387.801 861.189 388.566C859.814 389.28 858.596 390.324 857.535 391.699C856.386 393.022 855.638 394.762 855.29 396.92C854.855 399.025 855.021 401.609 855.787 404.672C857.005 409.544 859.259 412.937 862.548 414.851C865.767 416.783 870.091 417.07 875.52 415.712L907.782 407.645C913.281 406.27 916.996 403.972 918.928 400.753C920.842 397.464 921.172 393.314 919.919 388.302C919.136 385.17 918.1 382.803 916.812 381.203C915.455 379.619 914.037 378.532 912.557 377.94C911.009 377.366 909.46 377.087 907.911 377.105C906.275 377.07 904.814 377.14 903.526 377.314C902.586 377.401 901.847 377.253 901.307 376.87C900.681 376.435 900.228 375.661 899.95 374.547C899.654 373.364 899.75 372.416 900.237 371.702C900.637 370.937 901.672 370.345 903.343 369.927C906.475 369.144 909.616 369.283 912.766 370.344C915.846 371.423 918.63 373.389 921.119 376.243C923.52 379.044 925.296 382.742 926.444 387.336Z" fill="white"/>
<path d="M895.798 302.715C897.802 306.847 898.911 310.695 899.125 314.259C899.274 317.855 898.933 320.851 898.102 323.248C897.175 325.611 896.13 327.075 894.968 327.638C894.452 327.889 893.84 328.026 893.134 328.049C892.397 328.008 891.757 327.84 891.215 327.545C890.608 327.281 890.196 326.923 889.976 326.471C889.663 325.825 889.77 324.976 890.296 323.924C890.726 322.838 891.224 321.48 891.789 319.85C892.258 318.187 892.459 316.216 892.39 313.937C892.257 311.689 891.454 309.048 889.983 306.014C888.511 302.98 886.774 300.633 884.773 298.972C882.707 297.343 880.423 296.417 877.923 296.194C875.358 296.003 872.591 296.627 869.622 298.067C866.523 299.57 864.319 301.357 863.011 303.427C861.702 305.497 860.904 307.798 860.617 310.329C860.299 312.796 860.268 315.363 860.524 318.029C860.781 320.696 861.021 323.41 861.244 326.173C861.436 328.87 861.357 331.501 861.005 334.064C860.588 336.658 859.597 339.053 858.03 341.248C856.399 343.474 853.905 345.402 850.548 347.03C847.062 348.721 843.876 349.468 840.99 349.273C838.04 349.109 835.434 348.34 833.172 346.965C830.879 345.525 828.895 343.736 827.22 341.598C825.481 339.491 824.063 337.308 822.967 335.049C822.091 333.241 821.36 331.323 820.774 329.295C820.093 327.233 819.62 325.269 819.353 323.405C819.087 321.541 819.106 319.937 819.411 318.592C819.621 317.215 820.177 316.307 821.081 315.869C821.468 315.681 822.015 315.575 822.721 315.552C823.332 315.495 823.957 315.551 824.596 315.719C825.236 315.887 825.713 316.294 826.026 316.939C826.307 317.52 826.408 318.468 826.328 319.783C826.184 321.129 826.259 322.847 826.555 324.936C826.755 326.992 827.543 329.44 828.921 332.281C830.048 334.605 831.467 336.708 833.177 338.59C834.856 340.407 836.863 341.586 839.199 342.128C841.471 342.701 844.027 342.298 846.867 340.921C849.449 339.668 851.266 338.07 852.316 336.125C853.27 334.147 853.778 331.987 853.838 329.645C853.867 327.239 853.753 324.702 853.497 322.036C853.175 319.401 852.983 316.703 852.92 313.943C852.761 311.149 853.003 308.44 853.644 305.817C854.19 303.16 855.407 300.656 857.297 298.304C859.186 295.952 862.068 293.837 865.941 291.958C870.524 289.735 874.724 288.775 878.538 289.078C882.289 289.412 885.626 290.784 888.549 293.193C891.441 295.539 893.857 298.713 895.798 302.715Z" fill="white"/>
</svg>
